<svg width="8" height="4" viewBox="0 0 8 4" fill="none" xmlns="http://www.w3.org/2000/svg">
<g id="Down 2">
<path id="Vector" d="M7.68848 1.01866C7.88287 0.822528 7.88146 0.505949 7.68533 0.31156C7.48919 0.117171 7.17262 0.118583 6.97823 0.314715L5.81335 1.49003C5.3406 1.96702 5.01524 2.29422 4.73955 2.51562C4.47175 2.73069 4.29974 2.80447 4.14569 2.82411C4.04896 2.83644 3.95108 2.83644 3.85435 2.82411C3.7003 2.80447 3.52829 2.73069 3.26049 2.51563C2.98481 2.29422 2.65945 1.96702 2.18669 1.49003L1.02181 0.314715C0.827425 0.118584 0.510846 0.117171 0.314715 0.31156C0.118583 0.505949 0.117171 0.822529 0.31156 1.01866L1.49742 2.21515C1.94405 2.6658 2.30908 3.03411 2.63433 3.29532C2.97254 3.56694 3.31584 3.76356 3.72791 3.81608C3.9086 3.83911 4.09144 3.83911 4.27213 3.81608C4.6842 3.76356 5.0275 3.56694 5.36571 3.29532C5.69096 3.03411 6.05599 2.6658 6.50262 2.21515L7.68848 1.01866Z" fill="#9C9C9C"/>
</g>
</svg>
